<svg width="128" height="128" viewBox="0 0 128 128" fill="none" xmlns="http://www.w3.org/2000/svg">
  <rect width="128" height="128" rx="28" fill="#111827"/>
  <path d="M28 44C28 36.268 34.268 30 42 30H60C79.882 30 96 46.118 96 66C96 85.882 79.882 102 60 102H42C34.268 102 28 95.732 28 88V44Z" fill="#DC2626"/>
  <path d="M50 48H62C71.941 48 80 56.059 80 66C80 75.941 71.941 84 62 84H50V48Z" fill="white"/>
  <path d="M58 56H62C67.523 56 72 60.477 72 66C72 71.523 67.523 76 62 76H58V56Z" fill="#111827"/>
</svg>
